<svg width="124" height="38" viewBox="0 0 124 38" fill="none" xmlns="http://www.w3.org/2000/svg">
<path d="M37.7826 16.6069C37.6997 16.6069 37.6168 16.6069 37.5338 16.6069C35.3895 16.6069 33.5769 16.6069 31.3852 16.6069C27.2446 16.6069 23.104 16.6127 18.9693 16.6069C18.6613 16.6069 18.3592 16.6241 18.0571 16.6642C17.0264 16.8017 16.0312 17.0537 15.0776 17.4546C12.5837 18.497 10.7415 20.2038 9.53309 22.552C9.05328 23.4856 8.72748 24.4707 8.54385 25.5017C8.39576 26.3207 8.36022 27.1512 8.40761 27.9816C8.46684 28.9668 8.64455 29.929 8.97035 30.8683C9.56863 32.6094 10.5756 34.0928 12.0151 35.2956C12.9095 36.0402 13.9165 36.6129 15.0124 37.0425C15.8476 37.3689 16.7125 37.6038 17.601 37.7584C18.1874 37.8615 18.7798 37.9302 19.3781 37.9703C19.4669 37.976 19.5558 37.9875 19.6446 37.999H19.7335C19.7335 37.8844 19.7276 37.7756 19.7276 37.661C19.7335 36.6874 19.9882 35.7767 20.4739 34.9233C21.1314 33.7836 22.0792 32.9359 23.2817 32.3402C23.9925 31.9909 24.7389 31.7675 25.5267 31.6644C25.8822 31.6186 26.2435 31.6071 26.6048 31.6071C30.6269 31.6071 33.6894 31.6071 37.6819 31.6071C37.7175 31.6071 37.7471 31.6071 37.7826 31.6071C42.0654 31.6071 45.5425 28.2508 45.5425 24.1042C45.5425 19.9575 42.0654 16.6069 37.7826 16.6069Z" fill="url(#paint0_linear)"/>
<path d="M51.0308 0C50.8868 0 50.7429 0 50.5989 0C46.8762 0 43.7294 0 39.9245 0C32.7362 0 25.5479 0.010174 18.3699 0C17.8352 0 17.3107 0.0305221 16.7862 0.10174C14.9969 0.345917 13.2692 0.793574 11.6135 1.50576C7.28412 3.35743 4.0859 6.38929 1.98804 10.5606C1.15506 12.219 0.58946 13.9689 0.270667 15.8003C0.0135751 17.2552 -0.0481269 18.7304 0.0341424 20.2056C0.136979 21.9556 0.445489 23.6648 1.01109 25.3333C2.04974 28.4262 3.79796 31.0613 6.29689 33.1979C7.84972 34.5205 9.59795 35.5379 11.5004 36.3009C12.9504 36.8809 14.4518 37.298 15.9944 37.5727C17.0125 37.7558 18.0408 37.8779 19.0795 37.9491C19.2337 37.9593 19.388 37.9797 19.5422 38H19.6965C19.6965 37.7965 19.6862 37.6032 19.6862 37.3997C19.6965 35.6701 20.1387 34.0525 20.982 32.5365C22.1234 30.5119 23.7688 29.0062 25.8564 27.9481C27.0904 27.3274 28.3862 26.9307 29.7539 26.7475C30.3709 26.6661 30.9982 26.6458 31.6255 26.6458C38.6081 26.6458 43.9248 26.6458 50.856 26.6458C50.9177 26.6458 50.9691 26.6458 51.0308 26.6458C58.4659 26.6458 64.5024 20.6838 64.5024 13.3178C64.5024 5.95181 58.4659 0 51.0308 0Z" fill="url(#paint1_linear)"/>
<path d="M47.8991 3.65918C47.7697 3.65918 47.6402 3.65918 47.5108 3.65918C44.1644 3.65918 41.3357 3.65918 37.9154 3.65918C31.4537 3.65918 24.992 3.66837 18.5396 3.65918C18.0589 3.65918 17.5874 3.68676 17.116 3.75112C15.5075 3.97178 13.9544 4.37633 12.4661 5.01993C8.57433 6.69328 5.69939 9.43316 3.81358 13.2028C3.0648 14.7015 2.55637 16.2829 2.2698 17.9378C2.03869 19.2526 1.98323 20.5858 2.05718 21.9189C2.14962 23.5003 2.42695 25.045 2.93538 26.5528C3.86904 29.3479 5.44055 31.7292 7.68689 33.66C9.08276 34.8552 10.6543 35.7746 12.3644 36.4642C13.6679 36.9883 15.0175 37.3653 16.4042 37.6135C17.3193 37.779 18.2437 37.8893 19.1774 37.9537C19.3161 37.9629 19.4547 37.9813 19.5934 37.9997H19.7321C19.7321 37.8158 19.7228 37.6411 19.7228 37.4572C19.7321 35.8942 20.1296 34.4323 20.8876 33.0623C21.9137 31.2327 23.3928 29.872 25.2693 28.9158C26.3786 28.3549 27.5434 27.9963 28.7729 27.8308C29.3275 27.7573 29.8914 27.7389 30.4553 27.7389C36.7321 27.7389 41.5113 27.7389 47.7419 27.7389C47.7974 27.7389 47.8436 27.7389 47.8991 27.7389C54.5826 27.7389 60.009 22.3511 60.009 15.6944C60.009 9.03781 54.5826 3.65918 47.8991 3.65918Z" fill="url(#paint2_linear)"/>
<path d="M80.9786 13.8226C80.8476 14.4775 80.7822 15.0014 80.7494 15.3943C80.7167 15.7544 80.7494 16.1146 80.8149 16.4093C80.8804 16.704 81.0441 16.9004 81.2733 17.0314C81.5025 17.1624 81.8299 17.2278 82.1901 17.2933C82.5502 17.3588 83.0741 17.3915 83.729 17.3915C84.744 17.3915 86.2174 17.2606 88.1819 17.0314L87.9854 21.91C85.5953 22.3356 83.4015 22.5321 81.3388 22.5321C79.1451 22.5321 77.5079 22.1719 76.3947 21.4188C75.2815 20.6658 74.6921 19.5198 74.5284 18.0136C74.3647 16.4748 74.4957 14.543 74.8886 12.2183C75.216 10.3192 75.5762 8.78035 76.0018 7.60163C76.4275 6.42291 76.9841 5.37516 77.7044 4.49112C78.4247 3.57434 79.3415 2.95224 80.4875 2.55933C81.6007 2.16642 83.0086 1.96997 84.6785 1.96997C86.6758 1.96997 88.8367 2.16642 91.1942 2.59207L89.6553 7.56889C87.8872 7.30695 86.512 7.17598 85.497 7.17598C84.4493 7.17598 83.6635 7.27421 83.1723 7.47066C82.6812 7.66711 82.321 7.99454 82.0919 8.42018C81.8627 8.84583 81.6662 9.63165 81.4697 10.7449L80.9786 13.8226Z" fill="#0079B1"/>
<path d="M92.9621 2.39526H106.747L105.895 7.20837H98.2664L97.808 9.82774H104.684L103.865 14.5099H96.9894L96.4983 17.2275H104.225L103.374 22.1061H89.4915L92.9621 2.39526Z" fill="#0079B1"/>
<path d="M114.016 15.9835C113.393 15.9508 112.968 15.9181 112.673 15.8526L111.593 22.0736H105.732L109.17 2.36279H117.454C122.496 2.36279 124.624 4.68749 123.806 9.30414C123.314 12.0872 122.005 14.0518 119.811 15.0995C120.04 15.7216 120.433 16.8021 120.99 18.3737C121.546 19.9454 122.005 21.1896 122.332 22.0409H115.882L114.016 15.9835ZM114.212 7.07767L113.426 11.4651C114.081 11.5306 114.67 11.5634 115.227 11.5634C116.078 11.5634 116.668 11.3996 117.061 11.105C117.421 10.7775 117.683 10.2864 117.781 9.56608L117.879 9.10769C118.108 7.76526 117.683 7.11041 116.569 7.11041H114.212V7.07767Z" fill="#0079B1"/>
<path d="M76.8205 30.0955H75.1179L74.6595 32.7149H72.564L73.7427 25.97H75.8382L75.4125 28.4256H77.1151L77.5408 25.97H79.6363L78.4576 32.7149H76.3621L76.8205 30.0955Z" fill="#0079B1"/>
<path d="M80.7824 25.97H82.8779L81.6991 32.7149H79.6036L80.7824 25.97Z" fill="#0079B1"/>
<path d="M83.1725 30.9472C83.9583 31.0454 84.5477 31.0782 84.9079 31.0782C85.3335 31.0782 85.6282 31.0454 85.7592 31.0127C85.8901 30.9799 85.9884 30.8817 85.9884 30.7507C86.0211 30.6198 85.9556 30.5215 85.8574 30.4561C85.7592 30.3906 85.53 30.2923 85.2353 30.1614L84.5804 29.8667C83.5654 29.4411 83.1398 28.7207 83.3362 27.7712C83.5 27.0181 83.8274 26.4943 84.2858 26.1996C84.7769 25.9049 85.4972 25.7739 86.4795 25.7739C87.1671 25.7739 87.8874 25.8394 88.6732 26.0031L88.1821 27.7057C87.5927 27.6075 87.1016 27.5747 86.7087 27.5747C86.2503 27.5747 85.9556 27.6075 85.7919 27.6402C85.6282 27.673 85.5627 27.7712 85.53 27.9022C85.4972 28.0331 85.6282 28.1641 85.8574 28.2951C85.8901 28.3278 86.0211 28.3606 86.2176 28.4588L86.8397 28.7207C87.3963 28.9499 87.8219 29.2446 88.0511 29.572C88.2803 29.8994 88.3458 30.2924 88.2476 30.7835C88.1493 31.2746 88.0184 31.6348 87.7892 31.9295C87.56 32.2241 87.2326 32.4533 86.7414 32.617C86.2503 32.7808 85.6282 32.879 84.8424 32.879C84.1548 32.879 83.4345 32.8135 82.6814 32.6498L83.1725 30.9472Z" fill="#0079B1"/>
<path d="M90.5395 27.6726H88.8369L89.1316 25.97H94.7305L94.4358 27.6726H92.635L91.751 32.7149H89.6555L90.5395 27.6726Z" fill="#0079B1"/>
<path d="M99.8711 26.1993C100.297 26.4613 100.526 26.8542 100.591 27.378C100.657 27.9019 100.624 28.5568 100.46 29.3426C100.362 29.9974 100.231 30.5213 100.068 30.9142C99.9366 31.3071 99.7074 31.6673 99.4455 31.9947C99.1835 32.3221 98.8234 32.5513 98.3977 32.6823C97.9721 32.8132 97.4155 32.8787 96.7934 32.8787C95.9421 32.8787 95.2872 32.7478 94.8943 32.4858C94.4687 32.2239 94.2395 31.831 94.174 31.3071C94.1085 30.7832 94.1412 30.1284 94.2722 29.3426C94.3704 28.6877 94.5014 28.1639 94.6651 27.7709C94.7961 27.378 95.0253 27.0179 95.2872 26.6905C95.5491 26.363 95.9093 26.1338 96.335 26.0029C96.7606 25.8719 97.3172 25.8064 97.9721 25.8064C98.7906 25.8064 99.4455 25.9374 99.8711 26.1993ZM98.365 28.8187C98.4632 28.3276 98.4632 28.0001 98.365 27.8037C98.2667 27.6072 98.103 27.5417 97.8084 27.5417H97.4809C97.1863 27.5417 96.9898 27.64 96.8261 27.8037C96.6951 27.9674 96.5642 28.3276 96.4987 28.8187L96.335 29.8337C96.2367 30.3248 96.2367 30.6523 96.335 30.8487C96.4004 31.0124 96.5969 31.1106 96.8916 31.1106H97.219C97.5137 31.1106 97.7429 31.0124 97.8738 30.8487C98.0048 30.685 98.1358 30.3248 98.2013 29.8337L98.365 28.8187ZM96.8261 25.6427L96.6951 24.595L99.6747 23.449L99.8384 25.1516L96.8261 25.6427Z" fill="#0079B1"/>
<path d="M103.538 30.6194C103.342 30.6194 103.178 30.5866 103.08 30.5866L102.72 32.7149H100.722L101.901 25.97H104.75C106.485 25.97 107.205 26.7558 106.911 28.3602C106.747 29.3097 106.288 29.9645 105.535 30.3574C105.601 30.5539 105.765 30.9468 105.928 31.4707C106.092 31.9945 106.288 32.4202 106.387 32.7149H104.16L103.538 30.6194ZM103.604 27.5743L103.342 29.0805C103.571 29.1132 103.767 29.1132 103.964 29.1132C104.258 29.1132 104.455 29.0477 104.586 28.9495C104.717 28.8513 104.782 28.6548 104.848 28.4256L104.881 28.2619C104.946 27.8035 104.815 27.5743 104.422 27.5743H103.604Z" fill="#0079B1"/>
<path d="M108.122 25.97H110.218L109.039 32.7149H106.943L108.122 25.97Z" fill="#0079B1"/>
<path d="M114.114 31.5034H112.182L111.658 32.7149H109.53L112.772 25.97H115.489L116.406 32.7149H114.278L114.114 31.5034ZM112.772 30.03H113.983L113.885 28.7858L113.852 27.4434H113.787L113.295 28.7858L112.772 30.03Z" fill="#0079B1"/>
<path d="M117.094 30.9472C117.879 31.0454 118.469 31.0782 118.829 31.0782C119.255 31.0782 119.549 31.0454 119.68 31.0127C119.811 30.9799 119.909 30.8817 119.909 30.7507C119.942 30.6198 119.877 30.5215 119.778 30.4561C119.68 30.3906 119.451 30.2923 119.156 30.1614L118.501 29.8667C117.486 29.4411 117.061 28.7207 117.257 27.7712C117.421 27.0181 117.748 26.4943 118.207 26.1996C118.698 25.9049 119.418 25.7739 120.401 25.7739C121.088 25.7739 121.808 25.8394 122.594 26.0031L122.103 27.7057C121.514 27.6075 121.023 27.5747 120.63 27.5747C120.171 27.5747 119.877 27.6075 119.713 27.6402C119.549 27.673 119.484 27.7712 119.451 27.9022C119.418 28.0331 119.549 28.1641 119.778 28.2951C119.811 28.3278 119.942 28.3606 120.139 28.4588L120.761 28.7207C121.317 28.9499 121.743 29.2446 121.972 29.572C122.201 29.8994 122.267 30.2924 122.169 30.7835C122.07 31.2746 121.939 31.6348 121.71 31.9295C121.481 32.2241 121.154 32.4533 120.662 32.617C120.171 32.7808 119.549 32.879 118.763 32.879C118.076 32.879 117.355 32.8135 116.602 32.6498L117.094 30.9472Z" fill="#0079B1"/>
<defs>
<linearGradient id="paint0_linear" x1="45.5425" y1="23.9253" x2="10.9311" y2="23.1262" gradientUnits="userSpaceOnUse">
<stop stop-color="#27A9E0"/>
<stop offset="1" stop-color="#2B3990"/>
</linearGradient>
<linearGradient id="paint1_linear" x1="9.96423" y1="12.7372" x2="43.3024" y2="35.8987" gradientUnits="userSpaceOnUse">
<stop stop-color="#27A9E0"/>
<stop offset="1" stop-color="#2B3990"/>
</linearGradient>
<linearGradient id="paint2_linear" x1="10.9835" y1="15.1698" x2="41.0551" y2="35.9513" gradientUnits="userSpaceOnUse">
<stop stop-color="#F1A31F"/>
<stop offset="1" stop-color="#F05530"/>
</linearGradient>
</defs>
</svg>
